<svg width="61" height="81" viewBox="0 0 61 81" fill="none" xmlns="http://www.w3.org/2000/svg">
<rect width="61" height="81" rx="4" fill="#ADADAD"/>
<rect x="6" y="5" width="49" height="12" rx="2" fill="#363530"/>
<rect x="8" y="22.1047" width="12" height="12" rx="2" transform="rotate(-0.5 8 22.1047)" fill="#363530"/>
<rect x="8" y="36.1047" width="12" height="12" rx="2" transform="rotate(-0.5 8 36.1047)" fill="#363530"/>
<rect x="8" y="50.1047" width="12" height="12" rx="2" transform="rotate(-0.5 8 50.1047)" fill="#363530"/>
<rect x="24" y="22.1047" width="12" height="12" rx="2" transform="rotate(-0.5 24 22.1047)" fill="#363530"/>
<rect x="24" y="36.1047" width="12" height="12" rx="2" transform="rotate(-0.5 24 36.1047)" fill="#363530"/>
<rect x="24" y="50.1047" width="12" height="12" rx="2" transform="rotate(-0.5 24 50.1047)" fill="#363530"/>
<rect x="40" y="65.1047" width="12" height="12" rx="2" transform="rotate(-0.5 40 65.1047)" fill="#363530"/>
<rect x="40" y="22.1047" width="12" height="12" rx="2" transform="rotate(-0.5 40 22.1047)" fill="#4A48DB"/>
<rect x="40" y="36.1047" width="12" height="12" rx="2" transform="rotate(-0.5 40 36.1047)" fill="#4A48DB"/>
<rect x="40" y="50.1047" width="12" height="12" rx="2" transform="rotate(-0.5 40 50.1047)" fill="#4A48DB"/>
<rect x="8" y="65.2426" width="27.79" height="12" rx="2" transform="rotate(-0.5 8 65.2426)" fill="#363530"/>
</svg>
